<svg width="1860" height="400" viewBox="0 0 1860 400" fill="none" xmlns="http://www.w3.org/2000/svg">
<path fill-rule="evenodd" clip-rule="evenodd" d="M19.6188 214.84C20.1661 226.102 31.4395 220.891 36.5457 217.371C41.3925 214.028 42.8097 216.807 43.2352 210.21C43.5139 205.875 44.0147 201.539 43.7683 197.187C36.4389 196.524 28.467 198.266 22.4581 202.622C19.363 204.866 13.5597 212.029 19.6188 214.84Z" fill="#F6D2A2" stroke="black" stroke-width="3" stroke-linecap="round"/>
<path fill-rule="evenodd" clip-rule="evenodd" d="M19.6188 214.84C21.2595 214.231 22.9983 213.799 24.1117 212.318L19.6188 214.84Z" fill="#C6B198"/>
<path d="M19.6188 214.84C21.2595 214.231 22.9983 213.799 24.1117 212.318" stroke="black" stroke-width="3" stroke-linecap="round"/>
<path fill-rule="evenodd" clip-rule="evenodd" d="M45.6712 80.6854C2.47116 68.5625 34.5941 13.7194 69.2848 36.2771L45.6712 80.6854Z" fill="#6AD7E5" stroke="black" stroke-width="3" stroke-linecap="round"/>
<path fill-rule="evenodd" clip-rule="evenodd" d="M237.608 32.1618C271.802 8.19416 302.702 62.2694 262.961 75.8751L237.608 32.1618Z" fill="#6AD7E5" stroke="black" stroke-width="3" stroke-linecap="round"/>
<path fill-rule="evenodd" clip-rule="evenodd" d="M244.963 353.435C253.648 358.798 269.524 375.014 256.495 382.877C243.975 394.316 236.969 370.322 225.98 366.997C230.712 360.584 236.711 354.737 244.963 353.435Z" fill="#F6D2A2" stroke="black" stroke-width="3" stroke-linecap="round"/>
<path d="M256.495 382.877C254.563 379.044 253.915 374.57 250.69 371.481" stroke="black" stroke-width="3" stroke-linecap="round"/>
<path fill-rule="evenodd" clip-rule="evenodd" d="M89.7918 371.761C79.5974 373.336 73.8593 382.514 65.3607 387.174C57.3522 391.94 54.2887 385.649 53.5672 384.372C52.312 383.8 52.4173 384.904 50.48 382.957C43.0561 371.264 58.2155 362.718 66.1094 356.909C77.1041 354.692 83.9943 364.203 89.7918 371.761Z" fill="#F6D2A2" stroke="black" stroke-width="3" stroke-linecap="round"/>
<path d="M53.5679 384.371C53.9562 379.915 57.497 376.93 59.1835 373.163" stroke="black" stroke-width="3" stroke-linecap="round"/>
<path fill-rule="evenodd" clip-rule="evenodd" d="M47.4738 65.5382C41.7744 62.5297 37.5932 58.4437 41.0794 51.8653C44.3071 45.7753 50.3031 46.4366 56.0032 49.4452L47.4738 65.5382Z" fill="black"/>
<path fill-rule="evenodd" clip-rule="evenodd" d="M253.958 59.8185C259.657 56.81 263.838 52.724 260.352 46.1457C257.125 40.0556 251.129 40.717 245.428 43.7255L253.958 59.8185Z" fill="black"/>
<path fill-rule="evenodd" clip-rule="evenodd" d="M293.19 213.41C292.643 224.672 281.369 219.461 276.263 215.941C271.416 212.598 269.999 215.377 269.574 208.78C269.295 204.445 268.794 200.109 269.041 195.757C276.37 195.094 284.342 196.836 290.351 201.192C293.445 203.436 299.249 210.599 293.19 213.41Z" fill="#F6D2A2" stroke="black" stroke-width="3" stroke-linecap="round"/>
<path fill-rule="evenodd" clip-rule="evenodd" d="M293.19 213.411C291.549 212.801 289.811 212.369 288.697 210.888L293.19 213.411Z" fill="#C6B198"/>
<path d="M293.19 213.411C291.549 212.801 289.811 212.369 288.697 210.888" stroke="black" stroke-width="3" stroke-linecap="round"/>
<path fill-rule="evenodd" clip-rule="evenodd" d="M152.075 9.38313C195.324 9.38313 235.867 15.5554 257.001 57.0202C275.972 103.497 269.225 153.614 272.118 202.733C274.603 244.91 280.112 293.637 260.505 332.722C239.878 373.842 188.336 384.186 145.872 382.671C112.518 381.48 72.2251 370.621 53.4003 340.21C31.3149 304.534 41.7708 251.485 43.375 211.788C45.275 164.764 30.6113 117.597 46.0918 71.5832C62.1511 23.8503 105.462 13.063 152.075 9.38313Z" fill="#6AD7E5" stroke="black" stroke-width="3" stroke-linecap="round"/>
<path fill-rule="evenodd" clip-rule="evenodd" d="M159.711 67.3206C167.475 112.365 241.259 100.455 230.661 55.0255C221.158 14.287 157.13 25.5634 159.711 67.3206Z" fill="white" stroke="black" stroke-width="2.9081" stroke-linecap="round"/>
<path fill-rule="evenodd" clip-rule="evenodd" d="M71.5395 74.6061C81.6035 113.822 144.52 103.781 142.149 64.4443C139.307 17.3321 61.9175 26.4228 71.5395 74.6061Z" fill="white" stroke="black" stroke-width="2.8214" stroke-linecap="round"/>
<path fill-rule="evenodd" clip-rule="evenodd" d="M168.612 121.373C168.645 127.229 169.946 133.804 168.836 140.034C167.338 142.86 164.399 143.159 161.866 144.3C158.362 143.752 155.416 141.456 154.011 138.186C153.112 131.075 154.346 124.19 154.574 117.076L168.612 121.373Z" fill="white" stroke="black" stroke-width="3" stroke-linecap="round"/>
<path d="M92.6243 78.9674C98.4919 78.9674 103.249 73.8259 103.249 67.4837C103.249 61.1414 98.4919 56 92.6243 56C86.7567 56 82 61.1414 82 67.4837C82 73.8259 86.7567 78.9674 92.6243 78.9674Z" fill="black"/>
<path d="M95.5047 68.8369C96.888 68.8369 98.0094 67.5303 98.0094 65.9185C98.0094 64.3066 96.888 63 95.5047 63C94.1214 63 93 64.3066 93 65.9185C93 67.5303 94.1214 68.8369 95.5047 68.8369Z" fill="white"/>
<path d="M194.447 88.9674C200.217 88.9674 204.895 83.8259 204.895 77.4837C204.895 71.1414 200.217 66 194.447 66C188.677 66 184 71.1414 184 77.4837C184 83.8259 188.677 88.9674 194.447 88.9674Z" fill="black"/>
<path d="M198.463 75.8369C199.824 75.8369 200.926 74.5303 200.926 72.9185C200.926 71.3066 199.824 70 198.463 70C197.103 70 196 71.3066 196 72.9185C196 74.5303 197.103 75.8369 198.463 75.8369Z" fill="white"/>
<path fill-rule="evenodd" clip-rule="evenodd" d="M138.251 120.735C133.616 131.946 140.836 154.363 153.414 137.829C152.514 130.718 153.749 123.832 153.976 116.719L138.251 120.735Z" fill="white" stroke="black" stroke-width="3" stroke-linecap="round"/>
<path fill-rule="evenodd" clip-rule="evenodd" d="M139.838 99.1456C131.198 99.8806 124.136 110.132 128.628 118.241C134.577 128.983 147.855 117.291 156.125 118.387C165.643 118.581 173.441 128.43 181.086 120.167C189.588 110.977 177.426 102.026 167.92 98.0246L139.838 99.1456Z" fill="#F6D2A2" stroke="#231F20" stroke-width="3" stroke-linecap="round"/>
<path fill-rule="evenodd" clip-rule="evenodd" d="M138.75 98.6966C138.11 83.7604 166.647 81.8929 170.017 94.3954C173.379 106.869 140.155 109.766 138.75 98.6966Z" fill="black"/>
<path d="M186.497 320.864C189.313 325.598 187.788 331.782 182.753 334.017C172.64 338.506 161.447 341 149.67 341C142.02 341 134.616 339.947 127.594 337.979C122.278 336.489 119.887 330.568 122.016 325.475L136.899 289.876C140.821 291.547 145.138 292.473 149.67 292.473C155.93 292.473 161.777 290.708 166.742 287.65L186.497 320.864Z" fill="#A0CE50"/>
<path d="M128.897 284.999C130.527 286.348 132.29 287.541 134.163 288.555L117.389 328.68C116.295 331.297 113.238 332.493 110.746 331.139C106.338 328.744 102.175 325.954 98.3048 322.817C96.0945 321.026 96.0394 317.73 98.055 315.722L128.897 284.999Z" fill="#A0CE50"/>
<path d="M201.32 315.707C203.328 317.716 203.27 321.004 201.064 322.793C200.202 323.493 199.324 324.176 198.433 324.841C196.156 326.539 192.953 325.786 191.501 323.344L169.253 285.938C169.693 285.607 170.125 285.265 170.548 284.912L201.32 315.707Z" fill="#606B46"/>
<path d="M121.577 276.426C122.988 278.815 124.696 281.009 126.65 282.957L95.6881 313.799C93.7396 315.74 90.5767 315.753 88.7452 313.701C86.5394 311.231 84.4816 308.625 82.5859 305.898C81.0082 303.628 81.7741 300.539 84.1383 299.107L121.577 276.426Z" fill="#606B46"/>
<path d="M221.276 259.615C226.811 259.615 231.357 264.129 230.668 269.62C228.778 284.697 222.777 298.494 213.822 309.855C210.41 314.183 204.04 314.138 200.145 310.24L172.786 282.861C178.65 276.965 182.275 268.84 182.275 259.868C182.275 259.784 182.274 259.7 182.273 259.615H221.276Z" fill="#A0CE50"/>
<path d="M117.183 262.648C117.516 266.587 118.548 270.325 120.156 273.74L87.1936 293.71C82.35 296.644 75.9766 294.988 73.8689 289.732C71.7331 284.406 70.1426 278.802 69.166 272.991C68.2252 267.391 72.8243 262.648 78.5023 262.648H117.183Z" fill="#A0CE50"/>
<path d="M126.723 236.707C120.815 242.56 117.135 250.658 117.067 259.615H68.2873C68.1475 259.615 68.033 259.502 68.033 259.363C68.033 240.532 74.4093 223.191 85.1199 209.379C88.5084 205.01 94.9053 205.024 98.8234 208.925L126.723 236.707Z" fill="#606B46"/>
<path d="M208.423 221.538C212.839 217.122 220.221 217.789 222.976 223.394C226.473 230.507 228.964 238.203 230.266 246.297C231.164 251.879 226.574 256.582 220.92 256.582H182.111C181.862 254.096 181.334 251.692 180.559 249.402L208.423 221.538Z" fill="#606B46"/>
<path d="M130.376 233.583C129.899 233.934 129.433 234.296 128.977 234.671L97.5718 203.398C95.5661 201.401 95.6079 198.126 97.7924 196.326C98.697 195.58 99.618 194.854 100.555 194.147C102.822 192.437 106.029 193.172 107.494 195.606L130.376 233.583Z" fill="#A0CE50"/>
<path d="M149.67 177.725C149.81 177.725 149.923 177.84 149.923 177.98V227.265C149.839 227.264 149.755 227.264 149.67 227.264C143.539 227.264 137.802 228.956 132.903 231.9L112.515 198.062C109.672 193.342 111.162 187.148 116.186 184.886C126.404 180.285 137.738 177.725 149.67 177.725Z" fill="#A0CE50"/>
<path d="M152.956 188.194C152.956 182.516 157.699 177.917 163.298 178.858C171.463 180.23 179.217 182.815 186.368 186.42C191.913 189.216 192.542 196.55 188.151 200.941L160.118 228.974C157.834 228.201 155.436 227.675 152.956 227.427V188.194Z" fill="#606B46"/>
<path d="M185.208 321.631C187.63 325.704 186.244 330.827 182.144 332.646C172.22 337.051 161.233 339.5 149.671 339.5C142.159 339.5 134.89 338.467 127.999 336.535C123.672 335.322 121.568 330.436 123.4 326.053L137.714 291.815C141.436 293.209 145.466 293.972 149.671 293.972C155.672 293.972 161.313 292.419 166.214 289.695L185.208 321.631ZM129.012 287.002C130.052 287.795 131.138 288.53 132.267 289.201L116.005 328.101C115.228 329.959 113.117 330.72 111.463 329.821C107.136 327.47 103.048 324.732 99.2488 321.652C97.7814 320.463 97.6832 318.21 99.1141 316.785L129.012 287.002ZM200.26 316.767C201.685 318.193 201.584 320.44 200.119 321.629C199.272 322.316 198.411 322.986 197.536 323.638C196.024 324.766 193.821 324.31 192.79 322.577L173.27 289.759L200.26 316.767ZM121.086 278.476C122.117 280.058 123.276 281.548 124.548 282.932L94.6297 312.737C93.2476 314.114 91.0824 314.068 89.8641 312.703C87.6985 310.277 85.6781 307.719 83.8172 305.042C82.7684 303.533 83.2385 301.406 84.9158 300.389L121.086 278.476ZM221.276 261.115C226.037 261.115 229.741 264.961 229.18 269.433C227.325 284.231 221.434 297.773 212.643 308.926C209.865 312.451 204.557 312.533 201.206 309.179L174.88 282.835C180.142 277.061 183.449 269.471 183.75 261.115H221.276ZM78.5027 264.148H115.834C116.228 267.299 117.053 270.317 118.247 273.141L86.4168 292.426C82.247 294.953 76.9752 293.447 75.2615 289.174C73.1654 283.946 71.6038 278.446 70.6453 272.742C69.8802 268.188 73.6149 264.148 78.5027 264.148ZM86.3055 210.299C89.0649 206.74 94.3947 206.631 97.7654 209.988L124.618 236.728C119.371 242.407 116.03 249.876 115.613 258.115H69.5438C69.8185 240.111 76.0285 223.551 86.3055 210.299ZM209.484 222.598C213.296 218.787 219.402 219.524 221.63 224.055C225.062 231.037 227.507 238.59 228.785 246.535C229.515 251.076 225.786 255.083 220.92 255.083H183.437C183.184 253.278 182.792 251.518 182.267 249.814L209.484 222.598ZM101.458 195.344C102.963 194.209 105.169 194.652 106.21 196.38L126.546 230.134L98.6297 202.336C97.2061 200.918 97.2951 198.679 98.7459 197.483C99.634 196.751 100.538 196.038 101.458 195.344ZM148.423 225.786C143.011 225.981 137.918 227.438 133.431 229.872L113.8 197.288C111.353 193.227 112.712 188.096 116.803 186.254C126.473 181.899 137.165 179.408 148.423 179.236V225.786ZM154.456 188.194C154.456 183.306 158.496 179.572 163.05 180.338C171.063 181.685 178.673 184.221 185.692 187.76C190.177 190.021 190.88 196.091 187.091 199.881L159.706 227.263C158.009 226.742 156.254 226.353 154.456 226.1V188.194Z" stroke="black" stroke-width="3"/>
<path d="M229.791 157C242.354 157 252.538 167.184 252.539 179.747C252.539 192.31 242.354 202.494 229.791 202.494C226.012 202.494 222.449 201.572 219.313 199.941L169.612 249.643C171.242 252.779 172.164 256.342 172.164 260.121C172.164 272.684 161.98 282.868 149.417 282.868C136.855 282.868 126.67 272.684 126.67 260.121C126.67 247.558 136.855 237.374 149.417 237.374C153.034 237.374 156.453 238.22 159.49 239.722L209.392 189.819C207.89 186.783 207.044 183.364 207.044 179.747C207.044 167.184 217.229 157 229.791 157Z" fill="#424143" stroke="black" stroke-width="3"/>
<path d="M450.977 122.406C450.977 136.312 446.992 147.367 439.023 155.57C431.055 163.734 420.039 167.816 405.977 167.816C391.953 167.816 380.957 163.734 372.988 155.57C365.02 147.367 361.035 136.312 361.035 122.406C361.035 108.383 365.02 97.3086 372.988 89.1836C380.957 81.0195 391.953 76.9375 405.977 76.9375C419.961 76.9375 430.957 81.0195 438.965 89.1836C446.973 97.3086 450.977 108.383 450.977 122.406ZM421.152 144.496C423.34 141.84 424.961 138.715 426.016 135.121C427.07 131.488 427.598 127.23 427.598 122.348C427.598 117.113 426.992 112.66 425.781 108.988C424.57 105.316 422.988 102.348 421.035 100.082C419.043 97.7383 416.738 96.0391 414.121 94.9844C411.543 93.9297 408.848 93.4023 406.035 93.4023C403.184 93.4023 400.488 93.9102 397.949 94.9258C395.449 95.9414 393.145 97.6211 391.035 99.9648C389.082 102.152 387.48 105.18 386.23 109.047C385.02 112.875 384.414 117.328 384.414 122.406C384.414 127.602 385 132.035 386.172 135.707C387.383 139.34 388.965 142.309 390.918 144.613C392.871 146.918 395.156 148.617 397.773 149.711C400.391 150.805 403.145 151.352 406.035 151.352C408.926 151.352 411.68 150.805 414.297 149.711C416.914 148.578 419.199 146.84 421.152 144.496ZM540.215 106.293C540.215 110.199 539.531 114.027 538.164 117.777C536.797 121.488 534.844 124.613 532.305 127.152C528.828 130.59 524.941 133.188 520.645 134.945C516.387 136.703 511.074 137.582 504.707 137.582H490.703V166H468.203V78.7539H505.234C510.781 78.7539 515.449 79.2422 519.238 80.2188C523.066 81.1562 526.445 82.582 529.375 84.4961C532.891 86.8008 535.566 89.75 537.402 93.3438C539.277 96.9375 540.215 101.254 540.215 106.293ZM516.953 106.82C516.953 104.359 516.289 102.25 514.961 100.492C513.633 98.6953 512.09 97.4453 510.332 96.7422C507.988 95.8047 505.703 95.2969 503.477 95.2188C501.25 95.1016 498.281 95.043 494.57 95.043H490.703V121.176H497.148C500.977 121.176 504.121 120.941 506.582 120.473C509.082 120.004 511.172 119.066 512.852 117.66C514.297 116.41 515.332 114.926 515.957 113.207C516.621 111.449 516.953 109.32 516.953 106.82ZM619.316 166H556.211V78.7539H619.316V95.6289H578.594V110.688H616.387V127.562H578.594V149.125H619.316V166ZM717.578 166H695.898L658.867 106.117V166H638.242V78.7539H665.137L696.953 128.734V78.7539H717.578V166ZM820.469 166H797.207L791.172 148.363H758.828L752.793 166H730.117L762.344 78.7539H788.242L820.469 166ZM785.723 132.367L775 101.078L764.277 132.367H785.723ZM905.02 106.293C905.02 110.199 904.336 114.027 902.969 117.777C901.602 121.488 899.648 124.613 897.109 127.152C893.633 130.59 889.746 133.188 885.449 134.945C881.191 136.703 875.879 137.582 869.512 137.582H855.508V166H833.008V78.7539H870.039C875.586 78.7539 880.254 79.2422 884.043 80.2188C887.871 81.1562 891.25 82.582 894.18 84.4961C897.695 86.8008 900.371 89.75 902.207 93.3438C904.082 96.9375 905.02 101.254 905.02 106.293ZM881.758 106.82C881.758 104.359 881.094 102.25 879.766 100.492C878.438 98.6953 876.895 97.4453 875.137 96.7422C872.793 95.8047 870.508 95.2969 868.281 95.2188C866.055 95.1016 863.086 95.043 859.375 95.043H855.508V121.176H861.953C865.781 121.176 868.926 120.941 871.387 120.473C873.887 120.004 875.977 119.066 877.656 117.66C879.102 116.41 880.137 114.926 880.762 113.207C881.426 111.449 881.758 109.32 881.758 106.82ZM968.184 166H917.09V150.531H931.387V94.2227H917.09V78.7539H968.184V94.2227H953.887V150.531H968.184V166ZM1104.71 161.02C1100.8 162.543 1095.62 164.066 1089.18 165.59C1082.73 167.074 1076.31 167.816 1069.9 167.816C1055.06 167.816 1043.44 163.793 1035.04 155.746C1026.64 147.66 1022.44 136.508 1022.44 122.289C1022.44 108.734 1026.68 97.8164 1035.16 89.5352C1043.63 81.2148 1055.45 77.0547 1070.61 77.0547C1076.35 77.0547 1081.82 77.582 1087.01 78.6367C1092.21 79.6523 1097.99 81.7031 1104.36 84.7891V105.238H1101.84C1100.74 104.418 1099.14 103.266 1097.03 101.781C1094.92 100.258 1092.89 98.9688 1090.94 97.9141C1088.67 96.6641 1086.02 95.5898 1082.97 94.6914C1079.96 93.793 1076.76 93.3438 1073.36 93.3438C1069.38 93.3438 1065.76 93.9297 1062.52 95.1016C1059.28 96.2734 1056.37 98.0703 1053.79 100.492C1051.33 102.836 1049.38 105.824 1047.93 109.457C1046.52 113.051 1045.82 117.211 1045.82 121.938C1045.82 131.586 1048.38 138.969 1053.5 144.086C1058.61 149.203 1066.17 151.762 1076.17 151.762C1077.03 151.762 1077.97 151.742 1078.98 151.703C1080.04 151.664 1081 151.605 1081.86 151.527V134.418H1064.45V117.953H1104.71V161.02ZM1188.03 166H1124.92V78.7539H1188.03V95.6289H1147.3V110.688H1185.1V127.562H1147.3V149.125H1188.03V166ZM1286.29 166H1264.61L1227.58 106.117V166H1206.95V78.7539H1233.85L1265.66 128.734V78.7539H1286.29V166ZM1371.66 166H1308.55V78.7539H1371.66V95.6289H1330.94V110.688H1368.73V127.562H1330.94V149.125H1371.66V166ZM1439.51 105.473C1439.51 103.285 1439.06 101.41 1438.16 99.8477C1437.27 98.2852 1435.72 97.0547 1433.54 96.1562C1432.01 95.5312 1430.23 95.1602 1428.2 95.043C1426.17 94.8867 1423.81 94.8086 1421.11 94.8086H1412.97V118.305H1419.88C1423.48 118.305 1426.48 118.129 1428.91 117.777C1431.33 117.426 1433.36 116.625 1435 115.375C1436.56 114.164 1437.7 112.836 1438.4 111.391C1439.14 109.906 1439.51 107.934 1439.51 105.473ZM1474.61 166H1447.13L1423.34 134.008H1412.97V166H1390.59V78.7539H1428.32C1433.48 78.7539 1437.91 79.0469 1441.62 79.6328C1445.33 80.2188 1448.81 81.4883 1452.05 83.4414C1455.33 85.3945 1457.93 87.9336 1459.84 91.0586C1461.8 94.1445 1462.77 98.0312 1462.77 102.719C1462.77 109.164 1461.27 114.418 1458.26 118.48C1455.29 122.543 1451.04 125.922 1445.49 128.617L1474.61 166ZM1565.08 166H1541.82L1535.78 148.363H1503.44L1497.4 166H1474.73L1506.95 78.7539H1532.85L1565.08 166ZM1530.33 132.367L1519.61 101.078L1508.89 132.367H1530.33ZM1645.88 95.6289H1618.63V166H1596.13V95.6289H1568.89V78.7539H1645.88V95.6289ZM1744.26 122.406C1744.26 136.312 1740.27 147.367 1732.3 155.57C1724.34 163.734 1713.32 167.816 1699.26 167.816C1685.23 167.816 1674.24 163.734 1666.27 155.57C1658.3 147.367 1654.32 136.312 1654.32 122.406C1654.32 108.383 1658.3 97.3086 1666.27 89.1836C1674.24 81.0195 1685.23 76.9375 1699.26 76.9375C1713.24 76.9375 1724.24 81.0195 1732.25 89.1836C1740.25 97.3086 1744.26 108.383 1744.26 122.406ZM1714.43 144.496C1716.62 141.84 1718.24 138.715 1719.3 135.121C1720.35 131.488 1720.88 127.23 1720.88 122.348C1720.88 117.113 1720.27 112.66 1719.06 108.988C1717.85 105.316 1716.27 102.348 1714.32 100.082C1712.32 97.7383 1710.02 96.0391 1707.4 94.9844C1704.82 93.9297 1702.13 93.4023 1699.32 93.4023C1696.46 93.4023 1693.77 93.9102 1691.23 94.9258C1688.73 95.9414 1686.43 97.6211 1684.32 99.9648C1682.36 102.152 1680.76 105.18 1679.51 109.047C1678.3 112.875 1677.7 117.328 1677.7 122.406C1677.7 127.602 1678.28 132.035 1679.45 135.707C1680.66 139.34 1682.25 142.309 1684.2 144.613C1686.15 146.918 1688.44 148.617 1691.05 149.711C1693.67 150.805 1696.43 151.352 1699.32 151.352C1702.21 151.352 1704.96 150.805 1707.58 149.711C1710.2 148.578 1712.48 146.84 1714.43 144.496ZM1810.41 105.473C1810.41 103.285 1809.96 101.41 1809.06 99.8477C1808.16 98.2852 1806.62 97.0547 1804.43 96.1562C1802.91 95.5312 1801.13 95.1602 1799.1 95.043C1797.07 94.8867 1794.71 94.8086 1792.01 94.8086H1783.87V118.305H1790.78C1794.38 118.305 1797.38 118.129 1799.8 117.777C1802.23 117.426 1804.26 116.625 1805.9 115.375C1807.46 114.164 1808.59 112.836 1809.3 111.391C1810.04 109.906 1810.41 107.934 1810.41 105.473ZM1845.51 166H1818.03L1794.24 134.008H1783.87V166H1761.48V78.7539H1799.22C1804.38 78.7539 1808.81 79.0469 1812.52 79.6328C1816.23 80.2188 1819.71 81.4883 1822.95 83.4414C1826.23 85.3945 1828.83 87.9336 1830.74 91.0586C1832.7 94.1445 1833.67 98.0312 1833.67 102.719C1833.67 109.164 1832.17 114.418 1829.16 118.48C1826.19 122.543 1821.93 125.922 1816.39 128.617L1845.51 166ZM428.652 252.629H388.516V268.859H425.723V285.734H388.516V323H366.133V235.754H428.652V252.629ZM529.023 279.406C529.023 293.312 525.039 304.367 517.07 312.57C509.102 320.734 498.086 324.816 484.023 324.816C470 324.816 459.004 320.734 451.035 312.57C443.066 304.367 439.082 293.312 439.082 279.406C439.082 265.383 443.066 254.309 451.035 246.184C459.004 238.02 470 233.938 484.023 233.938C498.008 233.938 509.004 238.02 517.012 246.184C525.02 254.309 529.023 265.383 529.023 279.406ZM499.199 301.496C501.387 298.84 503.008 295.715 504.062 292.121C505.117 288.488 505.645 284.23 505.645 279.348C505.645 274.113 505.039 269.66 503.828 265.988C502.617 262.316 501.035 259.348 499.082 257.082C497.09 254.738 494.785 253.039 492.168 251.984C489.59 250.93 486.895 250.402 484.082 250.402C481.23 250.402 478.535 250.91 475.996 251.926C473.496 252.941 471.191 254.621 469.082 256.965C467.129 259.152 465.527 262.18 464.277 266.047C463.066 269.875 462.461 274.328 462.461 279.406C462.461 284.602 463.047 289.035 464.219 292.707C465.43 296.34 467.012 299.309 468.965 301.613C470.918 303.918 473.203 305.617 475.82 306.711C478.438 307.805 481.191 308.352 484.082 308.352C486.973 308.352 489.727 307.805 492.344 306.711C494.961 305.578 497.246 303.84 499.199 301.496ZM595.176 262.473C595.176 260.285 594.727 258.41 593.828 256.848C592.93 255.285 591.387 254.055 589.199 253.156C587.676 252.531 585.898 252.16 583.867 252.043C581.836 251.887 579.473 251.809 576.777 251.809H568.633V275.305H575.547C579.141 275.305 582.148 275.129 584.57 274.777C586.992 274.426 589.023 273.625 590.664 272.375C592.227 271.164 593.359 269.836 594.062 268.391C594.805 266.906 595.176 264.934 595.176 262.473ZM630.273 323H602.793L579.004 291.008H568.633V323H546.25V235.754H583.984C589.141 235.754 593.574 236.047 597.285 236.633C600.996 237.219 604.473 238.488 607.715 240.441C610.996 242.395 613.594 244.934 615.508 248.059C617.461 251.145 618.438 255.031 618.438 259.719C618.438 266.164 616.934 271.418 613.926 275.48C610.957 279.543 606.699 282.922 601.152 285.617L630.273 323ZM758.301 318.02C754.395 319.543 749.219 321.066 742.773 322.59C736.328 324.074 729.902 324.816 723.496 324.816C708.652 324.816 697.031 320.793 688.633 312.746C680.234 304.66 676.035 293.508 676.035 279.289C676.035 265.734 680.273 254.816 688.75 246.535C697.227 238.215 709.043 234.055 724.199 234.055C729.941 234.055 735.41 234.582 740.605 235.637C745.801 236.652 751.582 238.703 757.949 241.789V262.238H755.43C754.336 261.418 752.734 260.266 750.625 258.781C748.516 257.258 746.484 255.969 744.531 254.914C742.266 253.664 739.609 252.59 736.562 251.691C733.555 250.793 730.352 250.344 726.953 250.344C722.969 250.344 719.355 250.93 716.113 252.102C712.871 253.273 709.961 255.07 707.383 257.492C704.922 259.836 702.969 262.824 701.523 266.457C700.117 270.051 699.414 274.211 699.414 278.938C699.414 288.586 701.973 295.969 707.09 301.086C712.207 306.203 719.766 308.762 729.766 308.762C730.625 308.762 731.562 308.742 732.578 308.703C733.633 308.664 734.59 308.605 735.449 308.527V291.418H718.047V274.953H758.301V318.02ZM863.359 279.406C863.359 293.312 859.375 304.367 851.406 312.57C843.438 320.734 832.422 324.816 818.359 324.816C804.336 324.816 793.34 320.734 785.371 312.57C777.402 304.367 773.418 293.312 773.418 279.406C773.418 265.383 777.402 254.309 785.371 246.184C793.34 238.02 804.336 233.938 818.359 233.938C832.344 233.938 843.34 238.02 851.348 246.184C859.355 254.309 863.359 265.383 863.359 279.406ZM833.535 301.496C835.723 298.84 837.344 295.715 838.398 292.121C839.453 288.488 839.98 284.23 839.98 279.348C839.98 274.113 839.375 269.66 838.164 265.988C836.953 262.316 835.371 259.348 833.418 257.082C831.426 254.738 829.121 253.039 826.504 251.984C823.926 250.93 821.23 250.402 818.418 250.402C815.566 250.402 812.871 250.91 810.332 251.926C807.832 252.941 805.527 254.621 803.418 256.965C801.465 259.152 799.863 262.18 798.613 266.047C797.402 269.875 796.797 274.328 796.797 279.406C796.797 284.602 797.383 289.035 798.555 292.707C799.766 296.34 801.348 299.309 803.301 301.613C805.254 303.918 807.539 305.617 810.156 306.711C812.773 307.805 815.527 308.352 818.418 308.352C821.309 308.352 824.062 307.805 826.68 306.711C829.297 305.578 831.582 303.84 833.535 301.496Z" fill="#959396"/>
</svg>
